PathFileType	4	(X/Y/Z)	C:/Users/beibeiliu/ov580/test_trc/capture2\sequence.28_training_dense_left.trc
DataRate	CameraRate	NumFrames	NumMarkers	Units	OrigDataRate	OrigDataStartFrame	OrigNumFrames
120	120	24	19	mm	120	201	400
Frame#	Time	ThumbCMC			ThumbMCP			ThumbIP			ThumbTip			IndexMCP			IndexPIP			IndexTip			MiddleMCP			MiddlePIP			MiddleTip			RingMCP			RingPIP			RingTip			PinkyMCP			PinkyPIP			PinkyTip			BackHand1			BackHand2			BackHand3	
		X0	Y0	Z0	X1	Y1	Z1	X2	Y2	Z2	X3	Y3	Z3	X4	Y4	Z4	X5	Y5	Z5	X6	Y6	Z6	X7	Y7	Z7	X8	Y8	Z8	X9	Y9	Z9	X10	Y10	Z10	X11	Y11	Z11	X12	Y12	Z12	X13	Y13	Z13	X14	Y14	Z14	X15	Y15	Z15	X16	Y16	Z16	X17	Y17	Z17	X18	Y18	Z18	
200	1.66667	-115.57	14.7158	37.454	-104.568	1.39441	9.38654	-96.289	-1.40382	-18.1327	-110.19	7.34335	-39.5341	-100.99	45.8903	-25.1946	-96.4498	19.5554	-35.6141	-109.296	4.42173	-5.96131	-122.861	41.5332	-30.7317	-117.227	6.54876	-32.1356	-131.453	5.9653	0.627534	-137.33	34.5453	-30.3028	-137.279	3.18274	-27.1724	-141.028	9.69252	7.81353	-155.976	28.5483	-28.0944	-151.583	2.32034	-16.1999	-156.408	13.6361	16.1139	-161.694	53.935	15.559	-172.993	43.4842	42.9642	-138.687	48.9862	41.6211	
201	1.675	-113.878	17.3048	39.1706	-99.0967	0.908695	14.0296	-97.061	2.0424	-13.8108	-112.963	7.96655	-36.8814	-104.483	47.1445	-22.9319	-98.2946	18.2034	-35.4682	-107.552	2.95844	-11.1231	-118.911	40.9931	-31.5254	-117.031	6.94583	-32.2002	-128.855	2.93185	0.313781	-140.034	28.085	-34.2722	-138.25	-0.905154	-20.5007	-144.502	10.7664	11.7802	-156.341	22.655	-29.2111	-151.739	-1.94963	-9.52796	-156.732	13.8009	16.3731	-162.253	54.3364	10.5569	-171.931	42.5077	43.9996	-139.287	50.5796	41.4898	
202	1.68333	-116.501	22.1146	44.9859	-102.833	20.4998	14.7055	-102.725	22.6007	-12.855	-122.743	22.8343	-32.2162	-104.416	46.5005	-22.3944	-94.2664	17.1422	-37.5469	-105.296	-4.14094	-16.0739	-120.73	40.9039	-32.0517	-112.24	6.15066	-35.812	-127.032	-2.38913	-4.99723	-136.418	25.1693	-31.2911	-132.176	-2.08939	-20.4952	-141.115	7.75587	11.1555	-153.754	15.9048	-27.8691	-149.43	-4.31422	-10.851	-156.126	11.8281	18.46	-162.44	51.1551	8.13085	-172.777	44.0672	40.031	-140.494	51.5965	34.0629	
203	1.69167	-115.837	30.6788	41.6546	-100.083	27.4792	12.2162	-103.181	28.703	-16.6307	-127.761	24.5513	-27.8613	-107.899	47.0449	-26.4729	-92.3203	21.7058	-37.5262	-102.314	-3.14555	-14.6745	-124.014	40.0193	-34.4077	-109.886	9.06042	-38.3078	-117.13	-1.97111	-5.33607	-140.141	20.1602	-31.8748	-129.81	-3.76488	-12.3031	-143.541	10.5969	15.2684	-155.512	14.7698	-27.2202	-144.965	-5.73056	-6.34879	-152.656	10.2171	17.2126	-168.626	47.0767	3.74615	-180.261	40.1361	36.8109	-141.763	53.82	32.5906	
204	1.7	-121.08	35.2066	39.4113	-102.183	32.7127	11.9393	-105.868	29.7784	-13.0639	-130.073	22.8179	-31.8075	-105.063	48.1651	-29.3436	-95.4022	20.3341	-36.4652	-100.333	0.701718	-9.18856	-127.321	38.0928	-38.3531	-110.111	11.0054	-41.6694	-117.528	-2.83185	-7.07847	-136.484	18.9452	-30.7804	-126.649	-3.52593	-9.73449	-140.432	8.72099	14.6754	-153.615	10.0101	-27.9905	-141.458	-7.61213	-5.92602	-153.843	8.27785	19.4815	-169.184	44.7785	3.76989	-178.01	38.512	34.8121	-149.161	55.4349	30.4172	
205	1.70833	-119.542	41.5505	38.4151	-103.169	35.9871	13.0305	-109.927	32.5115	-18.4275	-127.059	22.7582	-35.0432	-112.843	50.5178	-28.9427	-90.9333	25.4254	-34.3411	-96.958	4.62727	-9.06008	-126.666	39.329	-39.16	-109.195	10.787	-41.853	-112.822	-0.348118	-5.15228	-135.648	12.4141	-32.6964	-123.907	-4.62989	-8.13682	-135.212	11.4593	15.8605	-146.442	5.43932	-27.1756	-136.948	-8.07382	-4.05684	-146.571	8.365	19.9188	-173.269	41.5717	1.34624	-183.956	32.0797	32.0866	-155.2	54.2625	26.9951	
206	1.71667	-123.48	44.1126	35.231	-106.673	39.1521	10.1123	-111.812	33.1541	-17.9769	-130.077	20.5811	-37.5351	-117.631	48.6403	-32.9217	-92.1264	26.4221	-34.3965	-93.5444	9.2832	-7.1779	-127.637	36.9459	-41.1875	-108.644	10.7134	-41.5805	-106.993	2.66269	-6.79778	-137.037	12.0493	-31.6754	-119.099	-2.03855	-8.50661	-138.93	13.0541	16.1632	-149.469	2.65701	-25.7109	-132.309	-6.86118	-2.25105	-146.164	12.5301	21.5706	-174.714	36.8857	0.211935	-185.375	28.827	33.5875	-155.704	54.6784	23.3432	
207	1.725	-126.184	45.3596	36.116	-107.234	40.9583	9.00824	-111.614	35.5286	-21.2455	-126.84	21.9032	-38.473	-117.718	50.0075	-35.0194	-94.2574	31.5012	-36.9184	-93.0026	13.8106	-10.0898	-130.46	34.722	-42.8948	-107.473	13.4232	-43.2206	-105.298	2.73902	-6.29438	-132.755	14.1041	-30.2878	-119.344	-3.14152	-8.96325	-134.036	13.5233	15.4115	-145.94	-3.15352	-25.2393	-130.496	-9.61433	-0.155266	-148.823	9.00412	21.586	-175.442	32.6624	1.21327	-184.673	28.7306	30.9054	-160.173	52.3458	25.7204	
208	1.73333	-126.821	45.8359	36.6916	-112.1	41.9933	7.36757	-112.61	35.8089	-22.6747	-130.888	19.4291	-39.9111	-122.579	49.0947	-36.5041	-94.5768	33.4486	-38.811	-93.11	16.4127	-11.5189	-134.826	34.8501	-42.5642	-107.462	15.4219	-42.8197	-105.296	4.06466	-5.19098	-136.935	10.0992	-31.5911	-116.67	2.92695	-6.32052	-136.558	16.2849	16.6669	-143.975	0.693702	-24.593	-129.145	-5.19414	1.57932	-144.052	7.78676	21.1017	-176.87	29.4039	3.11664	-184.93	24.8869	33.0035	-163.13	50.3987	23.6619	
209	1.74167	-127.636	46.3199	35.3739	-110.377	42.9082	8.53226	-116.892	34.851	-24.2821	-131.201	21.3678	-38.3808	-126.92	51.9077	-35.1156	-101.02	33.1394	-41.7917	-96.6049	18.1935	-11.7694	-136.755	33.5232	-43.4584	-108.058	13.7491	-43.0797	-102.106	7.99547	-6.85565	-136.963	13.9544	-31.5306	-115.914	2.56736	-10.2965	-135.901	17.299	15.9777	-145.805	-2.54378	-24.5119	-130.108	-8.33394	0.63937	-147.6	11.1295	21.3553	-179.1	28.8533	1.90904	-182.534	28.0617	30.1492	-165.263	51.3086	24.8519	
210	1.75	-128.654	49.3065	31.6677	-110.21	42.377	6.99041	-114.679	33.8877	-21.4659	-126.291	20.8452	-42.2025	-127.724	54.0418	-39.7841	-101.587	36.0592	-44.5478	-98.6165	22.9863	-15.515	-135.255	34.5305	-44.1108	-110.357	18.2158	-43.5442	-109.322	8.64861	-3.63587	-138.217	10.8887	-32.6547	-117.253	3.55748	-14.1599	-133.406	15.6041	13.367	-148.048	-3.28976	-26.6258	-128.789	-7.36775	-1.25648	-143.707	11.1235	20.0891	-180.234	30.31	4.70976	-184.031	23.6776	36.1259	-163.722	52.82	21.5114	
211	1.75833	-129.274	47.2391	31.2744	-108.34	38.2021	5.59774	-98.645	32.7278	-21.1826	-106.544	20.3733	-39.403	-133.092	56.2615	-41.3815	-110.306	38.6152	-47.9022	-105.93	27.9759	-13.5275	-140.839	32.8476	-43.2729	-113.614	17.8295	-41.2008	-118.72	15.101	-0.998471	-139.262	10.2886	-36.6148	-117.161	2.83329	-16.1041	-133.31	15.7807	11.8337	-146.255	-2.51764	-27.5868	-127.863	-6.31941	-7.12988	-138.525	9.55027	18.0615	-182.983	25.596	2.77591	-184.842	22.3165	33.5256	-166.029	55.1734	23.0342	
212	1.76667	-127.2	52.1291	31.1567	-103.38	41.807	10.578	-96.7508	34.6051	-18.7472	-100.616	22.1032	-38.5278	-137.375	54.8125	-40.7081	-113	40.826	-50.183	-104.488	30.7077	-17.6887	-142.525	36.097	-41.2524	-116.627	15.5061	-41.0278	-116.762	19.8281	-3.76525	-144.764	12.9689	-37.6871	-117.752	4.55065	-22.312	-125.791	12.3141	5.61739	-152.926	-1.48299	-26.8235	-126.067	-7.0648	-13.0255	-135.438	3.89001	14.9055	-183.06	22.5334	6.21662	-186.448	21.2142	37.7858	-168.259	48.3275	22.1582	
213	1.775	-132.651	49.569	33.3163	-103.605	43.306	11.6525	-97.4423	37.0609	-15.5192	-95.8251	25.9152	-41.3762	-141.4	52.1488	-42.8386	-116.614	41.2232	-53.4297	-105.085	26.7383	-26.624	-145.196	32.51	-47.4612	-120.178	19.0084	-50.4445	-113.095	14.0965	-13.6402	-150.124	12.0086	-40.6391	-119.763	3.04104	-34.5069	-118.547	10.2479	-3.80595	-153.443	-2.23591	-30.159	-125.568	-6.54929	-22.4813	-126.543	3.16401	9.57091	-183.606	20.9147	6.04324	-185.476	19.4988	36.8132	-168.139	50.7294	25.281	
214	1.78333	-132.195	51.4626	33.011	-105.854	44.227	10.6987	-94.2914	39.2582	-13.3366	-89.7859	30.3238	-33.006	-143.8	52.3112	-42.4428	-122.772	38.1863	-57.4324	-99.8325	26.595	-35.1131	-152.601	35.4032	-46.0163	-123.2	23.1673	-60.0259	-104.671	14.6128	-30.8163	-156.087	12.5291	-43.2643	-128.025	1.55193	-49.9838	-114.676	3.64655	-16.8488	-158.529	-3.09872	-33.1333	-128.203	-10.5179	-34.0554	-117.432	-3.67214	-3.11254	-182.976	23.3313	4.24081	-184.777	21.6492	35.6378	-171.427	49.413	22.384	
215	1.79167	-131.741	50.0624	30.9547	-105.011	45.635	14.0472	-90.6365	41.6408	-9.31659	-84.2876	33.9761	-28.1307	-144.339	49.1769	-37.6892	-127.068	37.45	-61.5743	-101.176	21.2825	-53.6842	-155.675	33.459	-49.3126	-135.712	25.2699	-69.1025	-102.095	9.50976	-54.4156	-158.569	16.1824	-47.8445	-136.063	1.47302	-60.2379	-109.511	-0.0363432	-40.5529	-161.081	-4.59769	-35.8184	-135.326	-11.4955	-45.6448	-109.539	-9.96019	-22.8278	-180.154	19.8879	4.75183	-185.67	24.0973	35.8246	-169.098	50.0899	18.3802	
216	1.8	-131.732	49.9868	35.6229	-103.424	44.9338	13.8047	-88.0424	43.0027	-5.52797	-81.7345	34.1058	-28.6597	-141.454	48.3357	-39.3668	-124.371	34.7989	-64.7813	-102.364	19.1294	-68.7904	-154.653	37.6247	-45.7757	-139.061	27.5021	-75.4788	-109.995	6.90448	-77.4116	-159.976	16.4109	-42.3347	-140.594	4.05985	-65.8893	-108.984	-2.87096	-58.9745	-160.343	-1.08742	-34.5731	-139.279	-11.1062	-50.1489	-108.068	-13.8722	-39.0643	-177.684	23.7733	3.86454	-184.802	20.6522	31.8613	-166.601	48.242	18.8037	
217	1.80833	-127.144	51.9295	32.2552	-101.82	44.9713	14.81	-87.7555	41.0979	-3.21932	-82.1675	31.7495	-26.2259	-137.462	46.9798	-40.8041	-127.392	36.1452	-62.5674	-106.433	20.8327	-77.573	-154.08	37.2575	-49.9119	-143.097	31.7137	-75.3727	-120.388	14.9891	-94.0118	-158.298	16.4441	-45.7914	-144.684	5.01975	-68.1708	-110.988	-2.94391	-72.8757	-159.368	-2.86319	-31.7148	-140.429	-14.4819	-51.5683	-108.081	-18.2501	-45.3763	-176.712	23.5024	3.22215	-183.357	21.5101	33.1354	-165.068	47.6102	18.3603	
218	1.81667	-128.111	49.5788	32.5556	-102.791	44.1273	17.9494	-88.9668	39.9121	-5.91777	-81.0887	30.4117	-27.3238	-136.705	44.43	-38.7889	-127.222	35.0818	-61.6417	-111.9	22.4664	-82.3704	-153.892	34.9134	-48.7397	-145.231	30.4386	-73.2744	-126.781	19.8538	-100.379	-158.335	13.8946	-42.7099	-142.319	7.14882	-69.9614	-118.299	-4.7418	-79.1648	-160.464	-6.16295	-31.0398	-137.603	-11.3751	-51.6892	-108.054	-20.1536	-52.0112	-176.28	21.5305	3.68995	-185.676	20.7169	30.6356	-166.683	47.2915	19.9683	
219	1.825	-128.595	47.0907	34.1463	-101.55	43.3126	18.7468	-87.845	38.4327	-8.53946	-81.8184	28.6788	-24.7245	-135.611	43.6706	-37.8214	-127.986	33.9458	-61.6694	-114.598	22.531	-86.2508	-150.141	32.8988	-45.7747	-144.955	28.5567	-72.578	-132.612	22.1166	-100.72	-155.003	12.3603	-46.5604	-141.825	7.00957	-67.07	-116.719	-5.95273	-83.6029	-156.055	-4.63611	-31.0839	-139.974	-16.2277	-50.9699	-111.619	-21.3617	-53.9743	-174.181	18.2475	3.08354	-184.517	22.4898	30.2057	-164.084	44.7811	17.0173	
220	1.83333	-125.316	45.4782	36.6438	-99.914	38.9364	19.5743	-83.8436	35.2287	-3.17387	-80.8642	24.2954	-26.0522	-132.745	40.5346	-36.8615	-123.998	33.7404	-62.7632	-118.133	26.486	-83.5685	-145.411	33.9776	-43.4541	-139.992	32.5091	-71.8954	-131.336	27.9057	-101.984	-152.988	11.7128	-46.2119	-141.131	2.81803	-67.5096	-118.422	-6.18937	-83.4027	-156.046	-7.76917	-35.6171	-139.387	-15.5928	-51.4947	-109.331	-22.8553	-56.1101	-173.477	15.27	1.67912	-179.584	21.8084	29.2192	-159.629	45.8151	17.3474	
221	1.84167	-121.108	43.2976	38.8121	-95.7423	34.1861	19.2675	-81.7886	28.8695	-5.23745	-76.526	20.1533	-26.0723	-129.851	38.9181	-34.4751	-122.84	33.2513	-58.5049	-117.301	25.2107	-83.1562	-142.325	35.2847	-43.7444	-138.367	30.842	-71.6305	-131.143	28.9188	-101.506	-148.863	14.4411	-42.9799	-137.921	4.70076	-67.441	-117.254	-7.28984	-86.8692	-153.215	-3.69778	-33.4262	-138.8	-14.8964	-51.9543	-112.186	-27.1991	-60.0486	-169.222	18.538	2.15804	-183.06	21.2721	33.7198	-155.011	46.9621	18.2022	
222	1.85	-119.258	39.2771	38.9632	-93.9556	30.1426	18.9225	-80.8368	25.5719	-5.98715	-76.8326	15.6056	-28.7488	-125.405	40.9383	-32.3432	-118.216	35.1028	-56.4496	-114.472	27.7232	-80.098	-139.436	34.4516	-40.52	-133.217	33.334	-71.1995	-128.528	30.2632	-100.515	-146.115	16.0986	-43.5789	-137.457	7.12621	-66.7997	-120.567	-4.67056	-87.4224	-155.045	-4.0522	-28.9493	-138.192	-14.0344	-54.3819	-114.025	-26.0811	-64.7461	-169.273	18.2893	2.50532	-177.371	22.8216	32.7412	-154.656	43.0308	22.5458	
223	1.85833	-114.608	36.4283	40.7867	-92.707	24.5276	24.6442	-83.7793	19.6134	-1.8803	-76.4088	12.4976	-26.1995	-120.733	39.7417	-32.2541	-116.344	32.6139	-55.7571	-113.206	25.6933	-80.8887	-136.729	32.9027	-42.4381	-129.052	35.7135	-67.3816	-122.709	36.1042	-98.4101	-143.65	18.6513	-41.0665	-133.887	10.9969	-68.2184	-120.249	3.36295	-87.2031	-152.539	1.55425	-33.6595	-138.406	-5.93217	-54.3092	-117.709	-20.1702	-69.6516	-165.327	23.9468	3.84454	-178.388	23.109	29.7375	-149.507	41.7874	23.0524	
